<svg width="1600" height="1000" viewBox="0 0 1600 1000" fill="none" xmlns="http://www.w3.org/2000/svg">
  <defs>
    <linearGradient id="bg" x1="0" y1="0" x2="1600" y2="1000" gradientUnits="userSpaceOnUse">
      <stop stop-color="#052E16"/>
      <stop offset="1" stop-color="#064E3B"/>
    </linearGradient>
    <linearGradient id="note" x1="0" y1="0" x2="1" y2="1">
      <stop stop-color="#10B981"/>
      <stop offset="1" stop-color="#34D399"/>
    </linearGradient>
  </defs>

  <rect width="1600" height="1000" fill="url(#bg)"/>

  <g opacity="0.2">
    <circle cx="130" cy="120" r="84" fill="#6EE7B7"/>
    <circle cx="1450" cy="850" r="130" fill="#6EE7B7"/>
    <circle cx="1530" cy="110" r="56" fill="#A7F3D0"/>
  </g>

  <g opacity="0.35">
    <rect x="130" y="230" width="360" height="210" rx="20" transform="rotate(-10 130 230)" fill="url(#note)"/>
    <rect x="180" y="280" width="260" height="110" rx="14" fill="#064E3B" fill-opacity="0.45"/>
    <circle cx="310" cy="335" r="38" fill="#D1FAE5"/>
    <text x="294" y="348" font-size="32" font-family="Arial, sans-serif" fill="#065F46" font-weight="700">R$</text>
  </g>

  <g opacity="0.32">
    <rect x="860" y="420" width="430" height="240" rx="24" transform="rotate(8 860 420)" fill="url(#note)"/>
    <rect x="930" y="490" width="285" height="120" rx="14" fill="#065F46" fill-opacity="0.42"/>
    <circle cx="1085" cy="550" r="44" fill="#D1FAE5"/>
    <text x="1062" y="564" font-size="34" font-family="Arial, sans-serif" fill="#065F46" font-weight="700">R$</text>
  </g>

  <g opacity="0.22">
    <rect x="510" y="90" width="350" height="200" rx="18" transform="rotate(15 510 90)" fill="url(#note)"/>
    <rect x="1160" y="690" width="300" height="175" rx="16" transform="rotate(-14 1160 690)" fill="url(#note)"/>
    <rect x="330" y="690" width="280" height="170" rx="16" transform="rotate(9 330 690)" fill="url(#note)"/>
  </g>
</svg>